<svg xmlns="http://www.w3.org/2000/svg" xmlns:xlink="http://www.w3.org/1999/xlink" width="14" height="16" version="1.1" viewBox="0 0 14 16"><defs><linearGradient id="linear0" x1="33" x2="20.984" y1="5.3" y2="35.793" gradientTransform="matrix(0.291667,0,0,0.285714,0,0)" gradientUnits="userSpaceOnUse"><stop offset="0" style="stop-color:#33c3ff;stop-opacity:1"/><stop offset=".487" style="stop-color:#5383ec;stop-opacity:1"/><stop offset="1" style="stop-color:#6b57ff;stop-opacity:1"/></linearGradient></defs><g id="surface1"><path style="stroke:none;fill-rule:nonzero;fill:url(#linear0)" d="M 14 4.046875 L 14 11.972656 L 7 15.933594 L 0 11.972656 L 0 4.046875 L 7 0.0859375 Z M 6.667969 3.488281 C 6.667969 3.496094 6.445312 4.148438 4.28125 6.28125 C 3.191406 7.359375 3.203125 8.808594 3.203125 8.8125 C 3.203125 10.308594 4.09375 11.601562 5.382812 12.199219 C 5.351562 11.957031 5.332031 11.703125 5.332031 11.445312 C 5.332031 9.757812 6.066406 8.394531 6.96875 8.394531 C 7.875 8.394531 8.609375 9.757812 8.609375 11.445312 C 8.609375 11.710938 8.589844 11.972656 8.554688 12.222656 C 9.871094 11.632812 10.785156 10.328125 10.785156 8.8125 C 10.785156 8.8125 10.78125 8.6875 10.769531 8.597656 C 10.605469 7.273438 9.925781 6.390625 9.464844 5.9375 C 9.308594 6.28125 9.070312 6.875 8.707031 7.269531 C 8.566406 4.675781 6.679688 3.496094 6.667969 3.488281 Z M 6.667969 3.488281"/></g></svg>